# xmcd
# 
# Track frame offsets:
#     150
#     20543
#     40932
#     61315
#     81705
#     102091
#     122477
#     142810
#     163169
#     183585
#     203916
#     224252
#     244638
#     265012
#     285383
#     305766
# 
# Disc length: 4350
# 
# Revision: 4
# Processed by: cddbd v1.5.2PL0 Copyright (c) Steve Scherf et al.
# Submitted via: BonkEnc v1.0
# 
DISCID=e510fc10
DTITLE=Various Artist - Voyage dans les 16 Univers de la Collection Chlorophylle
DYEAR=1997
DGENRE=New Age
TTITLE0=Philippe Bestion - La genèse du cristal
TTITLE1=Jean-Paul Trombert et Claude Lapouge - Réveil douceur
TTITLE2=Dominique Massa et Didier Garino - Régénérescence
TTITLE3=Jean-Paul Trombert et Claude Lapouge - La fée de la source
TTITLE4=Philippe Bestion - Chants douceur
TTITLE5=André Garceau et Bruno Iachini - Solstice d'été
TTITLE6=André Garceau et Bruno Iachini - Le chant du sous-bois
TTITLE7=Olive Wilde - My heart is like the wind
TTITLE8=Emza - Accalmie du jour
TTITLE9=Karin Nobbs - Ruisseau tendresse
TTITLE10=André Garceau et Bruno Iachini - Le voyage de Némo
TTITLE11=Mario Masse - Une journée aux antilles
TTITLE12=Philippe Bestion - Baleines autour du monde
TTITLE13=Jean-Paul Trombert et Claude Lapouge - Neiges éternelles
TTITLE14=André Garceau et Bruno Iachini - Douceur du soir
TTITLE15=André Garceau et Bruno Iachini - Nuit magique
EXTD=
EXTT0=
EXTT1=
EXTT2=
EXTT3=
EXTT4=
EXTT5=
EXTT6=
EXTT7=
EXTT8=
EXTT9=
EXTT10=
EXTT11=
EXTT12=
EXTT13=
EXTT14=
EXTT15=
PLAYORDER=
